<svg xmlns="http://www.w3.org/2000/svg" viewBox="0 0 323.66 284.53"><defs><style>.cls-1{fill:#fff;}</style></defs><g id="Слой_2" data-name="Слой 2"><g id="Слой_1-2" data-name="Слой 1"><g id="лого_авит" data-name="лого авит"><path class="cls-1" d="M149.44,284.53a9.75,9.75,0,0,0-1.05-.21c-3.47-.2-6.95-.32-10.41-.62-3.62-.31-7.24-.72-10.83-1.24a161.77,161.77,0,0,1-21.81-4.54c-14.19-4.06-27.9-9.29-40.59-16.94A134.62,134.62,0,0,1,9.21,197.06a116.79,116.79,0,0,1-7.48-26.41,130.89,130.89,0,0,1-1.62-27A141.11,141.11,0,0,1,2.2,125a139.45,139.45,0,0,1,6.5-24.45,146.23,146.23,0,0,1,24-41.79A203.66,203.66,0,0,1,53.39,36.36,134.88,134.88,0,0,1,107.12,6.13a157,157,0,0,1,21.5-4.79,115.38,115.38,0,0,1,42.77,1.43,152.13,152.13,0,0,1,25.16,7.48,93.68,93.68,0,0,1,42.81,33.94,66.63,66.63,0,0,1,8.28,16.39c1.35,3.85,3,7.62,3.71,11.65.62,3.42,1.16,6.86,1.58,10.3q.73,6.21,1.19,12.44c.37,5,.64,9.92.88,14.89a94.93,94.93,0,0,1-.9,17.67,108.87,108.87,0,0,1-6.17,23.39,114.68,114.68,0,0,1-13.16,25.73,148.73,148.73,0,0,1-29.13,31.19c-1.48,1.18-3.08,2.23-4.67,3.27a1.48,1.48,0,0,0-.78,1.37c0,.72,0,1.44-.06,2.24H151.74c0-.48-.12-1-.12-1.49q0-7.15,0-14.32c0-.46-.06-.93-.09-1.39l-.26-.07c-.28.32-.57.63-.84,1a49.6,49.6,0,0,1-17.76,13.79,53.26,53.26,0,0,1-15,4.08,64,64,0,0,1-11.49.42,57.92,57.92,0,0,1-19.69-4.22c-7.88-3.27-13.7-8.87-18-16.18A60.46,60.46,0,0,1,61.69,178a94.44,94.44,0,0,1-1.89-21.34c.33-15.06,3.56-29.41,10.59-42.81a87,87,0,0,1,6.13-10c1-1.36,1.85-2.75,2.83-4.09A81.53,81.53,0,0,1,103,77.86a48.39,48.39,0,0,1,17.86-6.2,67.21,67.21,0,0,1,15-.68,38.38,38.38,0,0,1,14.8,3.85,26.1,26.1,0,0,1,6.66,4.8c1.2,1.2,2.47,2.34,3.56,3.64,1.8,2.12,3.48,4.35,5.2,6.54.24.31.46.62.69.94l.24-.07c.05-.5.13-1,.14-1.51.13-4.85.23-9.71.36-14.56q.35-12.31.69-24.62c0-.89,0-1.78,0-2.67,0-.55.14-1.14-.53-1.48-.12-.06-.18-.35-.18-.54,0-2.18,0-4.37,0-6.55,0-.07.08-.14.18-.32l3.36-.17c.12-1.07.24-2.06.35-3,.93-.24,16.13-.3,17.66-.06.09.64.21,1.31.29,2,.15,1.23.15,1.24,1.42,1.24h2.31a5.44,5.44,0,0,1,.14.92c0,1.9,0,3.8,0,5.71,0,.2.06.45,0,.59-.64,1-.3,2-.24,3.06l.54,10.3c.22,4.12.46,8.24.68,12.36.18,3.47.35,6.94.54,10.42.22,4,.45,8.07.66,12.11.19,3.56.37,7.11.56,10.66.21,4,.44,7.92.65,11.88q.28,5.26.55,10.54.33,6.12.67,12.23c.19,3.44.36,6.87.55,10.3q.33,6.18.67,12.36c.18,3.39.35,6.78.54,10.18.18,3.14.4,6.29.57,9.44.15,2.66.26,5.33.36,8a10,10,0,0,1-.17,1.19c-.07.71-.11,1.42-.17,2.39.66-.26,1.1-.39,1.51-.6a33.21,33.21,0,0,0,13.39-12.16,191.89,191.89,0,0,0,14.15-26.79A93.27,93.27,0,0,0,235.44,131a170.26,170.26,0,0,0,1.84-20.16,93.5,93.5,0,0,0-3.45-27.33c-1.41-5.1-2.67-10.25-4.58-15.2a75.39,75.39,0,0,0-29.61-36.5,94,94,0,0,0-31-12.92,119.92,119.92,0,0,0-19.05-2.72,139.88,139.88,0,0,0-18.54,0,105.15,105.15,0,0,0-17.14,2.34,106.28,106.28,0,0,0-29.62,12.1A130,130,0,0,0,56.05,53.46,196.15,196.15,0,0,0,39.27,73.09a134.27,134.27,0,0,0-23.74,60,115.31,115.31,0,0,0-.85,21.66c1.84,30.41,14.41,55.58,36.9,75.92a143.84,143.84,0,0,0,25.71,18.16,116.64,116.64,0,0,0,18.41,8,182.74,182.74,0,0,0,31.37,8.18,166.05,166.05,0,0,0,19.15,2.07,137.48,137.48,0,0,0,16.24-.12,127.52,127.52,0,0,0,26.91-4.77,162.32,162.32,0,0,0,35-14.39A114.7,114.7,0,0,0,255.29,223,82,82,0,0,0,268,203.56c.42-.92.78-1.86,1.16-2.8s.4-1,1.42-1c3.27,0,6.55.07,9.82.12l12.37.24,15.27.33c.44,0,.88.06,1.5.11A11.77,11.77,0,0,1,309,202c-1.31,2.37-2.52,4.8-4,7.07a120.81,120.81,0,0,1-15.22,18.54A190.82,190.82,0,0,1,228,270a177.44,177.44,0,0,1-34.69,10.64,182.11,182.11,0,0,1-18.43,2.79c-4.34.42-8.71.6-13.06.89a14.13,14.13,0,0,0-1.43.22Zm12.43-158.84a94.93,94.93,0,0,0-1-15.65,31.45,31.45,0,0,0-4-12,18.49,18.49,0,0,0-3.6-4.37c-10.22-8.66-22-11.22-34.93-8.62-9.41,1.88-17.26,6.69-23.94,13.48a62.73,62.73,0,0,0-14.14,23.23,89.93,89.93,0,0,0-5,27.56,93.16,93.16,0,0,0,1.66,21.6,53.1,53.1,0,0,0,5.59,15.69,31,31,0,0,0,10.67,11.55c8.29,5.1,17.17,6.11,26.46,3.52A45.26,45.26,0,0,0,141,188a59.24,59.24,0,0,0,10.66-17.38,170.48,170.48,0,0,0,8.27-27.22c.52-2.2.65-4.48,1-6.71.21-1.36.61-2.7.69-4.06C161.79,129.93,161.82,127.18,161.87,125.69Zm9.57,52.51c.4-.34.77-.62,1.11-.94l13.54-12.85c1.88-1.78,3.76-3.56,5.62-5.35a1.48,1.48,0,0,0,.08-2.4l-.51-.52-17.79-17.7c-.28-.28-.59-.52-1-.88a6.12,6.12,0,0,0-.26.91C171.94,141.56,171.19,177.24,171.44,178.2Zm20.48-22.36.26-.16c0-.36,0-.72,0-1.08-.17-3.35-.36-6.7-.54-10l-.9-16.72c-.1-1.86-.18-3.72-.3-5.57-.06-1-.17-1.1-1.16-1.13-.56,0-1.14,0-1.7,0a2.86,2.86,0,0,0-2.28.88c-3.77,3.36-7.59,6.67-11.38,10-1.87,1.65-1.42.91-1.56,3.37a2.29,2.29,0,0,0,.78,1.91q9,8.88,17.9,17.79C191.31,155.36,191.62,155.59,191.92,155.84Zm-2.26-45.58c0-1.89-1.51-34-2-35a9.06,9.06,0,0,0-.74.58c-.59.55-1.16,1.13-1.74,1.7q-5.4,5.31-10.83,10.61a2.19,2.19,0,0,0-.75,1.69c0,1.1,0,2.19-.14,3.28a2.55,2.55,0,0,0,.88,2.24c4.81,4.68,9.58,9.4,14.37,14.11C188.94,109.68,189.21,109.89,189.66,110.26Zm-18.32,70.51c7.34.3,14.69,0,22.18-.14-.31-7.08-.7-14-1.13-21.2a9.45,9.45,0,0,0-.94.7q-9.81,9.28-19.62,18.59A1.69,1.69,0,0,0,171.34,180.77Zm2.54-93,2.28-2.24c3.61-3.54,7.2-7.09,10.83-10.6a2.35,2.35,0,0,0,.82-2.14,21.62,21.62,0,0,1-.19-2.9,2.23,2.23,0,0,0-.88-1.87c-3.75-3.33-7.47-6.68-11.2-10-.26-.23-.55-.41-.85-.64C174.32,58.35,173.55,86.39,173.88,87.77ZM187.2,67.58c.31-1.06-.65-20.18-1.09-21.56-1.39,0-2.84,0-4.28,0a1.67,1.67,0,0,0-1.59.85c-1.71,2.59-3.48,5.15-5.21,7.73-.8,1.19-.76,1.5.31,2.45q5.44,4.9,10.92,9.79C186.54,67.08,186.86,67.31,187.2,67.58Zm-13.4,28-.34.15c-.25,5-.34,10.1-.41,15.31,2.81,0,5.46,0,8.12,0s5.25.11,7.87-.09l.09-.28Zm11.1,25.7a1.53,1.53,0,0,0-.43-.16c-3.64,0-7.28,0-10.92,0-.73,0-.84.16-.86,1q-.15,4.6-.25,9.21a5,5,0,0,0,.14.8A159.12,159.12,0,0,0,184.9,121.3ZM174.79,46.11a69.44,69.44,0,0,0-.15,7.52,39.58,39.58,0,0,0,5.1-7.52Z"/><path class="cls-1" d="M315.5,71.22a15.42,15.42,0,0,1,3.93,5.06,40.12,40.12,0,0,1,3.13,9.66,50.11,50.11,0,0,1,.94,14.6,25.08,25.08,0,0,1-3.94,11.85c-1.62,2.52-3.39,4.93-5.23,7.29-4.85,6.22-9.8,12.36-14.65,18.57a55.28,55.28,0,0,0-8.26,14.07,44.28,44.28,0,0,0-3.08,18.39,51.17,51.17,0,0,0,3.12,15.62c1,2.65,2,5.29,3,7.94a4.13,4.13,0,0,1,.13.83c-.35-.06-.66,0-.83-.17a8,8,0,0,1-1.43-1.3c-4.75-5.88-9.52-11.73-13.4-18.26a66.12,66.12,0,0,1-8.4-21.57,49.36,49.36,0,0,1,6.81-36.29,67.69,67.69,0,0,1,15-16.9c3.92-3.19,8-6.24,12-9.32a55.44,55.44,0,0,0,6.46-5.49A16.5,16.5,0,0,0,315,78.46a15.64,15.64,0,0,0,.09-6C315,72,314.85,71.56,315.5,71.22ZM285.65,177.48l.29,0c-.15-1.15-.26-2.3-.46-3.44a51.73,51.73,0,0,1-1-9.75c.05-3.39.28-6.78.53-10.17a58.29,58.29,0,0,1,.8-6.73c.62-3.29,1.44-6.54,2.2-9.81a47.76,47.76,0,0,1,5-12.81c1.45-2.57,3-5.09,4.43-7.66,1.11-2,2.17-4,3.22-6a4.65,4.65,0,0,0,.66-2.65c-.32.21-.56.33-.77.5l-5.28,4.26a80,80,0,0,0-7.83,7.24,35.89,35.89,0,0,0-9.94,23.61,55.19,55.19,0,0,0,1.29,14.09A94.75,94.75,0,0,0,285.36,177C285.44,177.16,285.56,177.32,285.65,177.48Z"/></g></g></g></svg>